<?xml version="1.0" encoding="utf-8"?>
<!-- Generator: Adobe Illustrator 18.0.0, SVG Export Plug-In . SVG Version: 6.00 Build 0)  -->
<!DOCTYPE svg PUBLIC "-//W3C//DTD SVG 1.1//EN" "http://www.w3.org/Graphics/SVG/1.1/DTD/svg11.dtd">
<svg xmlns="http://www.w3.org/2000/svg" xmlns:xlink="http://www.w3.org/1999/xlink" version="1.1" id="Слой_1" x="0px" y="0px" viewBox="151.7 0 508.3 1024" enable-background="new 151.7 0 508.3 1024" xml:space="preserve">
<path fill="#000000" stroke="" stroke-width="2" stroke-linecap="round" stroke-linejoin="round" stroke-miterlimit="10" d="  M592.7,428.3L588,419l-10.6-18.7c-0.8-2.5-11.9-13.6-11.9-13.6c-4.7-4.2-21.6-27.1-21.6-27.1c-4.2-6.4-11-12.7-11-12.7  c-4.7-3.8-33-17.7-33-17.7l-9.7-33.8c6.5-18.5-2.6-36.1-2.6-36.1l4.7-3.9c6.5-5.6,0-23.7,0-23.7l-19.4-17.5  c-0.9-9-30.5-24.5-30.5-24.5c-3-4.3,1.7-15.9,1.7-15.9c3.4-7.7,9-31,9-31c5.1-3.9,9.1-10.4,9.1-10.4c3.2-1.1,5.7-7.8,5.7-7.8  c10.3-4.3,9.3-9.3,9.3-9.3c3.9-2.1,3.9-13.9,3.9-13.9c3.6-3.9,2.5-9.3,2.5-9.3c2.1-2.5-1.4-7.1-1.4-7.1c1.1-2.1-0.4-7.1-0.4-7.1  c10.3-15,6.4-16.4,6.4-16.4c-2.9,3.2-1.4-4.3-1.4-4.3c2.5-8.6-2.1-15.7-2.1-15.7c-2.5,0-2.5,7.1-2.5,7.1c-1.4,3.6-3.2-8.2-3.2-8.2  c-2.5-13.6-12.8-18.2-12.8-18.2c-2.9-5.7-5.3-6.4-5.3-6.4c-2.9,1.8-3.2,6.4-3.2,6.4c-4.6-6.1-11.4-6.4-11.4-6.4  C434.3-6.7,413.9,1.5,413.9,1.5s-22.1-5-30.6,27.8c0,0,0,5.4-3.9,5.7c0,0,0.2-5.7-2.1-7.5c0,0-14.7,7.5-5.8,45.3  c0,0-3.2,2.5-2.9,8.9c0,0-3.2,4.8,0.3,10.1c0,0-3,3.1,1.4,6.7c4.4,3.5,5.2,11.6,5.2,11.6c1.3,6,7.8,9,7.8,9c3.5,5.2-3.1,9-3.1,9  c0,7.7,6,9,6,9c-0.9,3-6.5,15.9-6.5,15.9c-9.5-11.6-25.4-3-25.4-3c-11.6-2.2-26.7,0-26.7,0c-8.2-0.9-29.2,13.8-29.2,13.8  c-21.1,11.2-27.1,52.9-27.1,52.9c-9.5,8.6-18.9,102.8-18.9,102.8c-4.7,3.9-10.8,25.4-10.8,25.4c-9.5,8.2-20.6,43.9-20.6,43.9  c-3,13.8-14.2,28-14.2,28c-16.8,23.7-14.2,55.5-14.2,55.5l13.3,42.2C218.9,538,231,541,231,541c12.9,0,18.5,4.7,18.5,4.7  c5.6,5.6-2.6,19.4-2.6,19.4c-6,3-4.3,11.2-4.3,11.2c1.3,9,0.4,12.7,0.4,12.7c-6.5,10.3,0,31.5,0,31.5c-0.9,13.8,6,36.6,6,36.6  c4.3,0.4,10.3,12,10.3,12c-12,10.8-12.5,20.2-12.5,20.2c-1.7,10.8-6.5,16.3-6.5,16.3c-11.2,19.8,3,65.8,3,65.8  c-4.7,3.9-5.2,16.8-5.2,16.8l-6,24.5c-0.9-1.3-4.3,0-4.3,0l-5.2,9.9c-2.2,9,2.6,15.9,2.6,15.9c0,7.3-11.6,43.4-11.6,43.4  c-10.3,6.5-7.7,21.9-7.7,21.9c-4.3,2.6-19.4,22.4-19.4,22.4c-19.4,15.1-22.5,39.6-22.5,39.6l-3.4,17c-0.5,24.3,30.7,17.4,30.7,17.4  c24.9-1.7,23.2-21.5,23.2-21.5c-1.3-11.2,8.6-31,8.6-31c3.9-6.5,15.1-35.3,15.1-35.3c9.9-6.9,6.5-16.3,6.5-16.3  c3.9-17.6,20.2-33.5,20.2-33.5c4.7,7.7,24.9,18.5,24.9,18.5c12.9,12.5,19.4,7.3,19.4,7.3c37-5.2,68-44.3,68-44.3  c-0.3,3.4,0,13.8,0,13.8l-6.1-0.4c-3.9,0.9-3,16.3-3,16.3c0.4,3,6,2.6,6,2.6l-0.4,63.2c-2.2,17.6-9.5,25.8-9.5,25.8  c-5.6,6.5-4.7,23.7-4.7,23.7c-2.2,0-2.2,6-2.2,6c4.3,5.2,31,3,31,3c15.5,1.3,26.2,12.9,26.2,12.9c11.2,10.8,60.1,7.6,60.1,7.6  c3-4.3-0.7-7.1-0.7-7.1h-3.8c0.8-11.3-8.2-10.1-8.2-10.1c-1.3-3.4-4.7-6.7-4.7-6.7c-0.8-3-9.3-5.6-9.3-5.6c-3-0.4-7.4-4.2-7.4-4.2  c-3.8-5.9-19-27.2-19-27.2c-3.8-11.9-8.8-11-8.8-11c-0.4-21.6,14-66.6,14-66.6c2.1-0.4,3.8,0,3.8,0l7.2-19.5  c1.7-4.2-3.8-6.4-3.8-6.4l5.9-21.2l32.7-23.3L568,634.4l4.7-60.4l0.7-1.6c8.1,6.4,6.1-8.9,6.1-8.9c0.8-9.8-5.1-17.8-5.1-17.8  l-9.3-11.4c-2.1-7.6-10.6-10.6-10.6-10.6l-22.1-15.3l-6.4-11.1l-0.4-5c6.4-2.1,2.1-28.4,2.1-28.4c1.7-10.6-12.3-24.2-12.3-24.2  c-0.8-9.3-15.7-8.5-15.7-8.5l-4.1-3.8c3.1-8.5,0-23.7,0-23.7l27.8,15c3,10.3,9.3,9.5,9.3,9.5l0.8,3.8c6.8,6.8,11.5,3.4,11.5,3.4  l3.8,4.1c6.4,4.3,14-2.4,14-2.4l79.7,41.1c8.1-5.9,10.5-17.8,10.5-17.8L592.7,428.3z M325.1,431.3c-14.6,8.2-5.9,12.5-5.9,12.5  l-9,10.3c-3.4,0.4-6.5-7.3-6.5-7.3c0.4-6.9-9.9-27.5-9.9-27.5c3.9-9.9,6-42.6,6-42.6c2.2-4.3,0-57.2,0-57.2  c3.9,15.9,23.7,50.7,23.7,50.7c3,5.6,4.7,16.6,4.7,16.6C321.3,409.8,325.1,431.3,325.1,431.3z M415.7,7.6l-9.8,4.3  c-0.3-3.6,8.1-8,8.1-8l14.3,6C424.3,10.9,415.7,7.6,415.7,7.6z M512.1,386.6l-17.9-8.6l-2.8-7.7c15.9,2.2,20.7,8.2,20.7,8.2  C512.1,384.4,512.1,386.6,512.1,386.6z"/>
</svg>
